{
	"asset":{
		"version":"2.0",
		"generator":"Created using the official Cinema 4D glTF Exporter 1.000x290161"
	},
	"scenes":[{
		"nodes":[0]
	}],
	"nodes":[{
		"name":"seat",
		"translation":[0.0,
		0.0,
		0.0],
		"rotation":[-2.2351741790771486e-8,
		2.1855694143368966e-8,
		7.450580152834618e-9,
		-1.0],
		"scale":[1.0,
		1.0,
		1.0],
		"children":[1,
		2]
	},
	{
		"name":"Seat",
		"translation":[-0.000002919384314736817,
		65.3055191040039,
		4.235164736271502e-22],
		"rotation":[2.2351741790771486e-8,
		-2.1855694143368966e-8,
		-1.053671283557378e-8,
		-1.0],
		"scale":[1.0,
		1.0,
		1.0],
		"mesh":0
	},
	{
		"name":"Symmetry",
		"translation":[-16.55365753173828,
		33.48652267456055,
		-1.8590701818466187],
		"rotation":[2.2351741790771486e-8,
		-2.1855694143368966e-8,
		-1.053671283557378e-8,
		-1.0],
		"scale":[1.0,
		1.0,
		1.0],
		"mesh":1
	}],
	"meshes":[{
		"primitives":[{
			"attributes":{
				"POSITION":1,
				"NORMAL":2,
				"TEXCOORD_0":3
			},
			"indices":0,
			"material":0
		}]
	},
	{
		"primitives":[{
			"attributes":{
				"POSITION":5,
				"NORMAL":6,
				"TEXCOORD_0":7
			},
			"indices":4,
			"material":1
		}]
	}],
	"accessors":[{
		"bufferView":0,
		"type":"SCALAR",
		"componentType":5123,
		"count":11904,
		"byteOffset":0,
		"min":[0],
		"max":[2661]
	},
	{
		"bufferView":1,
		"type":"VEC3",
		"componentType":5126,
		"count":2662,
		"byteOffset":0,
		"min":[-30.01961898803711,
		-18.771648406982423,
		-21.68099021911621],
		"max":[30.01961898803711,
		29.952619552612306,
		20.198152542114259]
	},
	{
		"bufferView":1,
		"type":"VEC3",
		"componentType":5126,
		"count":2662,
		"byteOffset":12,
		"min":[-1.0,
		-1.0,
		-1.0],
		"max":[1.0,
		0.999993085861206,
		1.0]
	},
	{
		"bufferView":1,
		"type":"VEC2",
		"componentType":5126,
		"count":2662,
		"byteOffset":24,
		"min":[0.0,
		0.0],
		"max":[1.0,
		1.0]
	},
	{
		"bufferView":2,
		"type":"SCALAR",
		"componentType":5123,
		"count":16272,
		"byteOffset":0,
		"min":[0],
		"max":[3099]
	},
	{
		"bufferView":3,
		"type":"VEC3",
		"componentType":5126,
		"count":3100,
		"byteOffset":0,
		"min":[-17.788719177246095,
		-32.232688903808597,
		-26.616607666015626],
		"max":[50.896034240722659,
		18.995641708374025,
		26.599323272705079]
	},
	{
		"bufferView":3,
		"type":"VEC3",
		"componentType":5126,
		"count":3100,
		"byteOffset":12,
		"min":[-0.9996297955513,
		-0.9998599886894226,
		-0.9956411123275757],
		"max":[0.9996299147605896,
		0.9943887591362,
		0.9977254867553711]
	},
	{
		"bufferView":3,
		"type":"VEC2",
		"componentType":5126,
		"count":3100,
		"byteOffset":24,
		"min":[0.0,
		0.0],
		"max":[1.0,
		1.0]
	}],
	"bufferViews":[{
		"buffer":0,
		"byteOffset":0,
		"byteLength":23808,
		"target":34963
	},
	{
		"buffer":0,
		"byteOffset":23808,
		"byteLength":85184,
		"target":34962,
		"byteStride":32
	},
	{
		"buffer":1,
		"byteOffset":0,
		"byteLength":32544,
		"target":34963
	},
	{
		"buffer":1,
		"byteOffset":32544,
		"byteLength":99200,
		"target":34962,
		"byteStride":32
	}],
	"buffers":[{
		"uri":"data:application/octet-stream;base64,",
		"byteLength":108992
	},
	{
		"uri":"data:application/octet-stream;base64,",
		"byteLength":131744
	}],
	"materials":[{
		"pbrMetallicRoughness":{
			"baseColorFactor":[0.36893203883495148,
			0.46116504854368936,
			0.7378640776699029,
			1.0],
			"metallicFactor":0.019999999999999998,
			"roughnessFactor":0.05
		},
		"emissiveFactor":[0.0,
		0.0,
		0.0],
		"alphaMode":"OPAQUE",
		"doubleSided":false,
		"name":"Mat.1"
	},
	{
		"pbrMetallicRoughness":{
			"baseColorFactor":[0.74887241036618,
			0.7669902912621359,
			0.7624608210381469,
			1.0],
			"metallicFactor":0.6,
			"roughnessFactor":0.09999999999999999
		},
		"emissiveFactor":[0.0,
		0.0,
		0.0],
		"alphaMode":"OPAQUE",
		"doubleSided":false,
		"name":"Metal 02"
	}]
}